<?xml version="1.0" standalone="no"?>
<!DOCTYPE svg PUBLIC "-//W3C//DTD SVG 20010904//EN"
 "http://www.w3.org/TR/2001/REC-SVG-20010904/DTD/svg10.dtd">
<svg version="1.0" xmlns="http://www.w3.org/2000/svg"
 width="800.000000pt" height="800.000000pt" viewBox="0 0 800.000000 800.000000"
 preserveAspectRatio="xMidYMid meet">
<metadata>
Created by potrace 1.15, written by Peter Selinger 2001-2017
</metadata>
<g transform="translate(0.000000,800.000000) scale(0.100000,-0.100000)"
fill="#000000" stroke="none">
<path d="M3745 7993 c-633 -39 -1312 -253 -1830 -576 -579 -361 -1017 -803
-1355 -1367 -65 -108 -211 -393 -235 -458 -8 -20 -28 -71 -45 -112 -27 -65
-89 -238 -120 -335 -47 -150 -103 -423 -136 -655 -21 -155 -30 -644 -15 -821
24 -268 92 -639 150 -809 5 -14 14 -45 21 -70 7 -25 19 -59 26 -77 8 -17 14
-35 14 -41 0 -11 23 -70 81 -209 5 -13 13 -33 18 -45 14 -35 178 -367 204
-413 12 -22 34 -58 48 -80 14 -22 46 -71 70 -110 38 -62 65 -100 99 -142 6 -7
10 -15 10 -19 0 -3 12 -21 27 -39 16 -18 46 -56 68 -85 129 -171 388 -444 540
-568 22 -19 56 -47 75 -63 85 -70 127 -103 170 -132 25 -17 47 -34 50 -37 3
-4 23 -19 45 -33 22 -14 66 -44 99 -67 32 -22 61 -40 65 -40 4 0 25 -13 48
-30 22 -16 43 -27 47 -23 3 3 6 1 6 -6 0 -7 4 -10 9 -7 5 4 11 2 13 -3 1 -4
62 -38 133 -75 72 -36 137 -72 145 -78 8 -7 15 -12 15 -10 0 2 26 -8 58 -22
32 -15 59 -26 62 -26 2 0 14 -4 27 -9 13 -5 27 -9 32 -9 5 0 12 -4 15 -9 3 -5
42 -22 86 -37 44 -15 87 -30 95 -33 8 -4 17 -7 20 -8 3 -1 12 -4 20 -8 8 -3
49 -16 90 -28 41 -12 93 -27 115 -35 85 -28 379 -88 570 -116 63 -9 216 -13
515 -13 428 0 528 7 700 45 25 6 110 24 190 40 80 17 163 37 185 44 22 8 81
26 130 41 50 14 99 30 110 35 11 5 56 21 100 36 44 15 83 32 86 37 3 5 8 8 10
7 2 -1 17 3 32 9 16 6 31 11 34 11 16 0 413 204 413 212 0 5 5 6 10 3 6 -3 10
-1 10 6 0 7 3 9 6 6 4 -4 28 9 54 28 26 19 51 35 54 35 8 0 110 66 151 97 41
32 43 33 103 77 29 21 52 40 50 41 -3 4 -953 381 -1028 409 l-45 17 -90 -52
c-809 -469 -1751 -525 -2593 -153 -507 224 -972 623 -1298 1115 -46 70 -84
130 -84 133 0 3 -15 29 -33 58 -75 121 -205 416 -266 608 -101 318 -148 599
-158 945 -21 742 182 1426 596 2019 60 85 157 211 191 247 8 8 56 60 105 113
157 171 433 393 644 517 326 194 679 318 1066 376 169 25 599 25 770 0 541
-80 1037 -304 1455 -656 36 -30 73 -61 82 -69 16 -13 37 -5 205 76 332 160
676 324 740 351 35 14 63 29 63 32 0 6 -118 114 -191 174 -102 85 -420 315
-435 315 -3 0 -24 13 -47 28 -50 34 -241 142 -250 142 -3 0 -59 26 -124 58
-65 32 -159 75 -210 95 -83 34 -339 122 -381 132 -9 3 -51 13 -92 24 -102 27
-356 81 -405 87 -22 2 -74 8 -115 14 -194 25 -555 36 -765 23z"/>
</g>
</svg>
